PathFileType	4	(X/Y/Z)	Patient4_TMGait_0pt2_03_right_22.trc.trc
DataRate	CameraRate	NumFrames	NumMarkers	Units	OrigDataRate	OrigDataStartFrame	OrigNumFrames
47.781569965870	47.781569965870	5	33	mm	47.781569965870	71	       141
Frame#	Time	Sacral			L.Shoulder			Chest			R.Shoulder			Neck			R.ASIS			L.ASIS			R.Thigh.Superior			R.Thigh.Lateral			R.Thigh.Inferior			R.Patella			L.Thigh.Superior			L.Thigh.Lateral			L.Thigh.Inferior			L.Patella			L.Shank.Superior			L.Shank.Lateral			L.Shank.Inferior			R.Shank.Superior			R.Shank.Lateral			R.Shank.Inferior			R.Heel			R.Midfoot.Superior			R.Midfoot.Lateral			R.Toe			L.Heel			L.Midfoot.Lateral			L.Midfoot.Superior			L.Toe			L.Elbow			L.Wrist			R.Elbow			R.Wrist			
		X1	Y1	Z1	X2	Y2	Z2	X3	Y3	Z3	X4	Y4	Z4	X5	Y5	Z5	X6	Y6	Z6	X7	Y7	Z7	X8	Y8	Z8	X9	Y9	Z9	X10	Y10	Z10	X11	Y11	Z11	X12	Y12	Z12	X13	Y13	Z13	X14	Y14	Z14	X15	Y15	Z15	X16	Y16	Z16	X17	Y17	Z17	X18	Y18	Z18	X19	Y19	Z19	X20	Y20	Z20	X21	Y21	Z21	X22	Y22	Z22	X23	Y23	Z23	X24	Y24	Z24	X25	Y25	Z25	X26	Y26	Z26	X27	Y27	Z27	X28	Y28	Z28	X29	Y29	Z29	X30	Y30	Z30	X31	Y31	Z31	X32	Y32	Z32	X33	Y33	Z33	

71	48.525000000000	851.107489707678	1010.022962298228	605.567804541938	1001.490848432474	1431.335052910006	393.562829318230	1138.556240098808	1349.891641466268	518.577853230876	1115.221164688253	1425.016324869197	707.865590386793	1023.681646615217	1488.079545490737	551.340528004188	1094.258051989828	928.659685762947	666.619874130808	1022.473409215031	958.224642590803	402.833956350502	1101.584020252472	722.326843669405	623.561287745918	1020.080886571431	616.529260037425	693.072428053354	1073.062417206346	562.343683963228	598.192246123446	1063.506005373010	470.915278281359	602.818340429561	1089.858178511698	766.444470338570	410.522344252372	1012.524977178321	630.834413859150	340.428136448570	1127.636697003744	577.917241706166	388.437682019192	1145.535398058015	513.283316181593	384.388498799952	1129.148936092997	442.511612781056	369.325086319622	1056.728566172723	318.732844350169	310.392860784937	1142.745002493659	212.375189631189	354.065373274031	1017.610709574499	388.351912015641	610.651836270385	936.163901469483	294.431086711442	677.605882646141	949.995184841722	198.987942056411	605.149460481978	788.135103804345	46.978992863370	580.777411004449	962.597836318637	95.830473626099	608.513760976010	874.683534402336	37.636322065436	650.657817767281	1082.269256845708	40.499493998341	630.433909806127	1050.115552860591	38.893706784564	381.845660510285	1124.338503221492	40.150279273441	301.931031714852	1201.561261133988	110.716832471151	325.364411781651	1332.501394288697	71.279919433515	297.872875504645	814.784972304629	1128.614438885763	332.323802522333	740.585773417846	886.920878322498	408.684002295440	1305.864064172634	1144.987709175342	808.708935716529	1531.187975085977	1226.180489131759	724.161637023281	
72	48.545928571429	851.544107601154	1009.570661482101	602.350819343523	1001.198736096026	1430.281932381504	388.933511552009	1138.584735476960	1349.300702557988	513.911729121673	1115.363880169774	1424.670721080199	703.116336203852	1023.699598132166	1487.543708833159	546.525275871846	1094.697433436664	928.342730407070	663.743383482151	1022.921095873950	957.018079720598	399.879469663803	1100.396899731391	721.382315489889	621.289866526080	1017.895737662517	616.413507464142	691.339768353921	1069.940537115807	561.488743385624	596.633290610493	1059.355363265482	470.381224046024	601.424929042117	1089.959603190372	764.023600032843	408.930904295693	1011.043783197354	629.065611153123	339.458258938386	1125.402482690311	575.645462650326	388.027995483123	1141.768714993716	511.020767426593	384.489032326210	1126.221496688665	440.369147195779	369.128102567585	1054.482082919889	316.409802616653	310.398120102588	1140.340884835229	210.604486458079	355.013084184329	1013.612839206688	387.975705490356	609.583891600933	932.214015740159	294.352610458806	677.036769492806	945.755968497990	198.722032765572	604.753238768245	783.813731266099	46.651221551521	580.853307974439	958.139418832288	95.593969405654	608.235828452720	870.385704906182	37.468434821976	650.755115750143	1077.999084118367	40.557806666919	630.426824394163	1047.247859514293	38.466775552304	382.798381572298	1121.893601562122	39.261316109218	303.233573107207	1199.455173471286	108.877804189786	327.454634931611	1330.153079604924	68.319444237122	300.685266669896	815.929186717018	1126.405114011085	328.002167701385	742.832243754182	884.237426116674	403.878494161741	1306.799853000090	1144.733587153536	802.326839636722	1530.753246818660	1228.911439745302	717.309591455973	
73	48.566857142857	852.038661961794	1009.028902846526	598.747010208479	1001.238405719258	1429.120424492497	383.963695701144	1138.770098007969	1348.655909247096	509.138807874946	1115.358101119160	1424.301829233827	698.215237763152	1023.800102322639	1486.959453490915	541.399042567629	1095.172196367918	928.019792648607	660.804093283660	1023.711516797235	955.752117037587	396.777141538289	1099.557607919577	720.473580477532	618.928065925263	1016.131724539970	616.251533917287	689.407842931871	1067.393189101120	560.640410293240	594.925325071256	1055.832347706485	469.777555765800	599.891728989414	1090.749937098730	761.814127527035	407.344025029053	1010.581171203211	627.524383424567	338.243621623980	1124.162192953192	573.634917351908	387.503648822400	1139.102217972266	508.843981554854	384.321045970386	1124.037087851697	438.230743031285	368.712178296375	1052.386522493381	314.424877144410	310.171449054588	1137.510651738996	208.734837795984	355.745782689519	1010.066463898534	387.536495662914	608.359111311126	928.583020968726	294.370287689623	676.351320403195	941.722402722422	198.485965719549	604.295953483691	779.541008712504	46.518899291447	580.917851404164	953.720536600753	95.356373395712	607.901761995774	866.122950096425	37.404241421764	650.836128930227	1073.756518143346	40.573154914781	630.424895670227	1043.072271755998	38.312163472939	383.573050770852	1118.062670598643	38.484207703517	304.271080141968	1196.267666245364	106.833770802448	329.297782579102	1326.566989700712	64.713382188728	303.039443131348	817.783727161214	1123.925521501832	322.930233472368	745.911816460098	881.159084556149	398.032855954664	1306.822882251439	1143.865715815176	796.130399164482	1529.865852192118	1229.817378825869	710.663542942100	
74	48.587785714286	852.581546969961	1008.546288147151	594.791031625128	1001.621440336338	1427.978560876333	378.712069341619	1139.138073226640	1348.056065120972	504.284445069497	1115.288733367680	1424.024587285824	693.188423452649	1024.021279751706	1486.437904488336	536.015151612587	1095.652602636012	927.772044189667	657.768473877280	1024.776147884365	954.583586089907	393.505012883469	1098.972897412869	719.676133324597	616.467863505589	1014.687231554702	616.137730724383	687.292648649012	1065.318412620689	559.873053966868	593.090531013912	1052.845221625091	469.195150971651	598.258788248522	1092.068315575038	759.974140002259	405.638139080682	1010.985086249040	626.311943382540	336.722148732273	1123.801229693898	571.989761716773	386.733568405454	1137.495626291810	506.911918109905	383.810079376240	1122.604840830675	436.261018490134	368.039103155554	1050.600596785346	312.829395970267	309.645287835018	1134.547100215017	206.899405635977	356.205370365044	1006.902473094068	387.130039373261	607.018803587590	925.210697099049	294.556911752940	675.566220711535	937.882798780206	198.350900045728	603.800204479345	775.329525884413	46.648549950794	580.976397517617	949.376150933327	95.146415769935	607.542005493064	861.906509145863	37.477721172352	650.899788442110	1069.547539222775	40.534459632290	630.429965920197	1038.154709360825	38.323724118811	384.118799376460	1113.413229363123	37.809066945302	304.998897752605	1192.423510950544	104.773345915189	330.791839974635	1322.260708757922	60.914214980792	304.862847967364	820.324677728483	1121.331351979693	317.162523701612	749.841818306121	877.831493315910	391.185453539223	1306.071536864501	1142.577746335660	790.181067339063	1528.690596125194	1229.082253518598	704.250089439386	
75	48.608714285714	853.165746851455	1008.243265265599	590.509167251654	1002.346443864446	1426.967366290628	373.245660932196	1139.701292418988	1347.585074692228	499.380703686647	1115.222443706320	1423.929643818602	688.070089428240	1024.387912319614	1486.069480315271	530.436066372701	1096.111088162995	927.662886890681	654.600681388501	1026.053915758108	953.643244828810	390.039808524428	1098.533727973958	719.048271178725	613.899909012260	1013.440223437184	616.156054749204	685.016279696315	1063.584542952332	559.248262392986	591.155947215370	1050.270395581688	468.716564422934	596.569834738326	1093.758821608460	758.625295048203	403.710022060895	1012.094418468893	625.489147933556	334.859645352519	1124.182097205257	570.771132486533	385.627687865131	1136.854364149395	505.327883277155	382.928594550559	1121.876596809351	434.572916867328	367.106919730557	1049.209665523561	311.652642797141	308.801432619588	1131.641650805890	205.212567829539	356.386918417006	1004.030019166538	386.840544064769	605.607983729231	922.020700406965	294.968974557026	674.701148917228	934.213592610923	198.376078562515	603.289687889541	771.186866551266	47.086580472059	581.034284621502	945.136442801115	94.993697733533	607.193093710838	857.743419997439	37.713357367607	650.946804632983	1065.374188296152	40.436173786004	630.443021958369	1032.941546183520	38.421542493321	384.432455443814	1108.393498390384	37.243896093518	305.423130304685	1188.240974251189	102.869583741571	331.896301295621	1317.626885292749	57.323611263217	306.142593213895	823.511106279028	1118.765837023228	310.763322613663	754.640889758015	874.384434134665	383.376744418777	1304.695576973242	1141.057895987854	784.518745725329	1527.388076246660	1226.907843522037	698.106943921402	
